# xmcd
#
# Track frame offsets:
#	150
#	22886
#	47229
#	68766
#	83155
#	98965
#	115972
#	139349
#	164431
#	188334
#	212004
#	233495
#
# Disc length: 3557 seconds
#
# Revision: 1
# Processed by: cddbd v1.5.2PL0 Copyright (c) Steve Scherf et al.
# Submitted via: audiograbber 1.83.01
#
DISCID=990de30c
DTITLE=Bryan Steel - Of Roots and Restlessness
DYEAR=2005
DGENRE=Country Rock
TTITLE0=The Highway
TTITLE1=Heir To The Kingdom
TTITLE2=Sky Without A Moon
TTITLE3=Wake Up Dead Man
TTITLE4=Louder Than Words
TTITLE5=Everything Is Not Enough
TTITLE6=I Am
TTITLE7=To Mrs. Flannery
TTITLE8=The Catcher In The Rye
TTITLE9=The Ballad Of A Dreamer
TTITLE10=Opening Lines
TTITLE11=Where The Highway Ends
EXTD=
EXTT0=
EXTT1=
EXTT2=
EXTT3=
EXTT4=
EXTT5=
EXTT6=
EXTT7=
EXTT8=
EXTT9=
EXTT10=
EXTT11=
PLAYORDER=
